HIERARCHY
ROOT Hips
{
  OFFSET 54.7529 96.6277 60.1207
  CHANNELS 6 Xposition Yposition Zposition Zrotation Xrotation Yrotation
  JOINT spine
  {
    OFFSET 0 8.13249 0.467659
    CHANNELS 3 Zrotation Xrotation Yrotation
    JOINT spine1
    {
      OFFSET 0 10.3498 0
      CHANNELS 3 Zrotation Xrotation Yrotation
      JOINT spine2
      {
        OFFSET 0 9.91699 0
        CHANNELS 3 Zrotation Xrotation Yrotation
        JOINT Neck
        {
          OFFSET 0 25.461 1.2139
          CHANNELS 3 Zrotation Xrotation Yrotation
          JOINT Head
          {
            OFFSET 0 7.69245 0
            CHANNELS 3 Zrotation Xrotation Yrotation
            End Site
            {
              OFFSET 0 18.62 -6.14063
            }
          }
        }
        JOINT RightShoulder
        {
          OFFSET -4.17575 10.7096 -0.581445
          CHANNELS 3 Zrotation Xrotation Yrotation
          JOINT RightArm
          {
            OFFSET 0 14.0466 0
            CHANNELS 3 Zrotation Xrotation Yrotation
            JOINT RightArmRoll
            {
              OFFSET 0 7.09099 0
              CHANNELS 3 Zrotation Xrotation Yrotation
              JOINT RightForeArm
              {
                OFFSET 0 20.6535 0
                CHANNELS 3 Zrotation Xrotation Yrotation
                JOINT RightForeArmRoll
                {
                  OFFSET 0 7.95718 0
                  CHANNELS 3 Zrotation Xrotation Yrotation
                  JOINT RightHand
                  {
                    OFFSET 0 15.9683 0
                    CHANNELS 3 Zrotation Xrotation Yrotation
                    End Site
                    {
                      OFFSET 0 0 0
                    }
                  }
                }
              }
            }
          }
        }
        JOINT LeftShoulder
        {
          OFFSET 4.17575 10.7096 -0.581445
          CHANNELS 3 Zrotation Xrotation Yrotation
          JOINT LeftArm
          {
            OFFSET 0 14.0466 0
            CHANNELS 3 Zrotation Xrotation Yrotation
            JOINT LeftArmRoll
            {
              OFFSET 0 7.09099 0
              CHANNELS 3 Zrotation Xrotation Yrotation
              JOINT LeftForeArm
              {
                OFFSET 0 20.6535 0
                CHANNELS 3 Zrotation Xrotation Yrotation
                JOINT LeftForeArmRoll
                {
                  OFFSET 0 7.95718 0
                  CHANNELS 3 Zrotation Xrotation Yrotation
                  JOINT LeftHand
                  {
                    OFFSET 0 15.9683 0
                    CHANNELS 3 Zrotation Xrotation Yrotation
                    End Site
                    {
                      OFFSET 0 0 0
                    }
                  }
                }
              }
            }
          }
        }
      }
    }
  }
  JOINT RightUpLeg
  {
    OFFSET -7.20834 -1.32182 -1.10884
    CHANNELS 3 Zrotation Xrotation Yrotation
    JOINT RightUpLegRoll
    {
      OFFSET 0 18.7238 0
      CHANNELS 3 Zrotation Xrotation Yrotation
      JOINT RightLeg
      {
        OFFSET 0 -23.1866 0
        CHANNELS 3 Zrotation Xrotation Yrotation
        JOINT RightLegRoll
        {
          OFFSET 0 23.2624 0
          CHANNELS 3 Zrotation Xrotation Yrotation
          JOINT RightFoot
          {
            OFFSET 0 19.3621 0
            CHANNELS 3 Zrotation Xrotation Yrotation
            JOINT RightToeBase
            {
              OFFSET 0 16.1857 0
              CHANNELS 3 Zrotation Xrotation Yrotation
              End Site
              {
                OFFSET 0.00686052 7.83862 -0.903522
              }
            }
          }
        }
      }
    }
  }
  JOINT LeftUpLeg
  {
    OFFSET 7.20834 -1.32182 -1.10884
    CHANNELS 3 Zrotation Xrotation Yrotation
    JOINT LeftUpLegRoll
    {
      OFFSET 0 18.7239 0
      CHANNELS 3 Zrotation Xrotation Yrotation
      JOINT LeftLeg
      {
        OFFSET 0 23.1865 0
        CHANNELS 3 Zrotation Xrotation Yrotation
        JOINT LeftLegRoll
        {
          OFFSET 0 23.4775 0
          CHANNELS 3 Zrotation Xrotation Yrotation
          JOINT LeftFoot
          {
            OFFSET 0 19.147 0
            CHANNELS 3 Zrotation Xrotation Yrotation
            JOINT LeftToeBase
            {
              OFFSET 0 16.1857 0
              CHANNELS 3 Zrotation Xrotation Yrotation
              End Site
              {
                OFFSET -0.0307459 7.83862 -0.903522
              }
            }
          }
        }
      }
    }
  }
}
MOTION
Frames: 12
Frame Time: 0.00208333
55.3051 55.9567 13.9824 -1.52782 -10.3885 -0.620571 0.840439 1.57264 -0.188786 1.69492 7.13268 -0.489523 1.71702 8.77727 -0.520777 -5.14137 -3.43227 -3.21314 4.32853 3.43748 -3.61047 55.2629 -11.1143 -6.95958 128.5 35.1756 -24.4589 -8.08886e-007 -2.2409e-006 -9.31328e-006 18.7532 37.2445 -7.72784 5.21238e-006 -1.09415e-005 -3.01013 8.02892 -4.95095 0.697473 -63.9419 -8.38 5.32274 -118.198 36.0111 24.7122 -9.23875e-008 5.03751e-008 3.75197e-006 -12.2166 33.0708 3.55223 1.46601e-005 3.78258e-006 3.0015 -8.02895 -4.95136 -0.697667 134.198 73.2106 48.7052 180 7.01552e-015 178.944 178.413 85.4457 178.152 -1.27286e-006 4.0938e-006 1.8575 -19.9183 66.3855 18.2039 8.13649 25.2327 -3.48773 -135.683 73.8674 -45.8413 4.47153e-006 -3.51244e-005 -1.39094 32.7619 -85.801 33.133 -1.1153e-006 2.67091e-006 -2.12594 16.692 61.7887 -15.2713 -8.13562 25.2346 3.48476 
55.2998 55.956 13.9701 -1.53032 -10.3833 -0.618709 0.840401 1.57269 -0.188786 1.69618 7.13244 -0.490253 1.71742 8.77703 -0.521409 -5.1436 -3.43221 -3.21437 4.33551 3.44774 -3.61195 55.266 -11.1148 -6.95986 128.496 35.1734 -24.4583 -8.08886e-007 -2.2409e-006 -9.31328e-006 18.7524 37.266 -7.73258 5.21238e-006 -1.09415e-005 -3.01013 8.02892 -4.95095 0.697473 -63.9372 -8.38025 5.32277 -118.201 36.0071 24.716 -9.23875e-008 5.03751e-008 3.75197e-006 -12.2166 33.0795 3.55316 1.46601e-005 3.78258e-006 3.0015 -8.02895 -4.95136 -0.697667 134.189 73.2124 48.7254 180 7.01551e-015 178.943 178.332 85.4387 178.229 -1.27286e-006 4.0938e-006 1.8583 -19.9257 66.3765 18.1964 8.13649 25.2327 -3.48773 -135.685 73.8787 -45.8314 4.47153e-006 -3.51245e-005 -1.39041 32.7325 -85.7961 33.1036 -1.1153e-006 2.67091e-006 -2.126 16.6905 61.7908 -15.2731 -8.13562 25.2346 3.48476 
55.3033 55.9579 13.9778 -1.53289 -10.3782 -0.616711 0.840351 1.57273 -0.188785 1.69749 7.13215 -0.490995 1.71785 8.77674 -0.522049 -5.14591 -3.43228 -3.2156 4.34255 3.4582 -3.61343 55.2691 -11.1153 -6.96017 128.491 35.1714 -24.4573 -8.08886e-007 -2.2409e-006 -9.31328e-006 18.7515 37.2875 -7.73728 5.21238e-006 -1.09415e-005 -3.01013 8.02892 -4.95095 0.697473 -63.9325 -8.38039 5.32274 -118.204 36.0032 24.7197 -9.23875e-008 5.03751e-008 3.75197e-006 -12.2166 33.0876 3.55404 1.46601e-005 3.78258e-006 3.0015 -8.02895 -4.95136 -0.697667 134.179 73.2139 48.7464 180 7.01551e-015 178.942 178.246 85.4313 178.311 -1.27286e-006 4.0938e-006 1.85914 -19.9335 66.3667 18.1883 8.13649 25.2327 -3.48773 -135.686 73.8901 -45.8207 4.47153e-006 -3.51245e-005 -1.38989 32.7021 -85.791 33.0731 -1.1153e-006 2.67091e-006 -2.12607 16.6889 61.7928 -15.2749 -8.13562 25.2346 3.48476 
55.3038 55.9568 13.9781 -1.53551 -10.373 -0.614618 0.840294 1.57278 -0.188784 1.69884 7.13182 -0.491745 1.71831 8.77642 -0.522695 -5.14828 -3.43243 -3.21683 4.34964 3.46881 -3.61492 55.2723 -11.1159 -6.96052 128.486 35.1694 -24.4562 -8.08886e-007 -2.2409e-006 -9.31328e-006 18.7504 37.3089 -7.74196 5.21238e-006 -1.09415e-005 -3.01013 8.02892 -4.95095 0.697473 -63.9277 -8.38047 5.32267 -118.206 35.9994 24.7235 -9.23875e-008 5.03751e-008 3.75197e-006 -12.2167 33.0952 3.55489 1.46601e-005 3.78258e-006 3.0015 -8.02895 -4.95136 -0.697667 134.169 73.2153 48.7679 180 7.01551e-015 178.94 178.156 85.4236 178.395 -1.27286e-006 4.0938e-006 1.86002 -19.9415 66.3565 18.1798 8.13649 25.2327 -3.48773 -135.688 73.9016 -45.8096 4.47153e-006 -3.51245e-005 -1.38937 32.6709 -85.7858 33.042 -1.1153e-006 2.67091e-006 -2.12613 16.6872 61.7948 -15.2766 -8.13562 25.2346 3.48476 
55.3071 55.9552 13.9826 -1.53815 -10.3678 -0.612471 0.840232 1.57282 -0.188783 1.70022 7.13147 -0.492499 1.71877 8.77607 -0.523344 -5.15068 -3.43263 -3.21806 4.35675 3.4795 -3.61641 55.2755 -11.1165 -6.96088 128.481 35.1675 -24.4549 -8.08886e-007 -2.2409e-006 -9.31328e-006 18.7494 37.3303 -7.74663 5.21238e-006 -1.09415e-005 -3.01013 8.02892 -4.95095 0.697473 -63.9228 -8.3805 5.32258 -118.209 35.9957 24.7273 -9.23875e-008 5.03751e-008 3.75197e-006 -12.2168 33.1027 3.55572 1.46601e-005 3.78258e-006 3.0015 -8.02895 -4.95136 -0.697667 134.159 73.2166 48.7898 180 7.01551e-015 178.939 178.065 85.4158 178.481 -1.27286e-006 4.0938e-006 1.86091 -19.9498 66.346 18.1711 8.13649 25.2327 -3.48773 -135.691 73.9132 -45.798 4.47153e-006 -3.51245e-005 -1.38885 32.6396 -85.7805 33.0106 -1.1153e-006 2.67091e-006 -2.12619 16.6856 61.7967 -15.2784 -8.13562 25.2346 3.48476 
55.3061 55.9549 13.9849 -1.5408 -10.3626 -0.61031 0.840169 1.57286 -0.188782 1.7016 7.13111 -0.493255 1.71923 8.77572 -0.523993 -5.15309 -3.43285 -3.21929 4.36387 3.49022 -3.61791 55.2787 -11.1171 -6.96124 128.476 35.1656 -24.4536 -8.08886e-007 -2.2409e-006 -9.31328e-006 18.7483 37.3518 -7.75131 5.21238e-006 -1.09415e-005 -3.01013 8.02892 -4.95095 0.697473 -63.918 -8.38052 5.32248 -118.212 35.9921 24.7311 -9.23875e-008 5.03751e-008 3.75197e-006 -12.2169 33.1101 3.55655 1.46601e-005 3.78258e-006 3.0015 -8.02895 -4.95136 -0.697667 134.149 73.2178 48.8116 180 7.0155e-015 178.938 177.974 85.4079 178.567 -1.27286e-006 4.0938e-006 1.86181 -19.9581 66.3354 18.1623 8.13649 25.2327 -3.48773 -135.693 73.9249 -45.7864 4.47153e-006 -3.51245e-005 -1.38833 32.6081 -85.7752 32.9791 -1.1153e-006 2.67091e-006 -2.12625 16.6839 61.7986 -15.2801 -8.13562 25.2346 3.48476 
55.3042 55.9456 13.988 -1.54344 -10.3574 -0.608176 0.840109 1.5729 -0.188781 1.70298 7.13077 -0.494008 1.71969 8.77538 -0.524641 -5.15549 -3.43304 -3.22052 4.37098 3.50089 -3.6194 55.2819 -11.1176 -6.96159 128.471 35.1637 -24.4524 -8.08886e-007 -2.2409e-006 -9.31328e-006 18.7472 37.3732 -7.75599 5.21238e-006 -1.09415e-005 -3.01013 8.02892 -4.95095 0.697473 -63.9131 -8.38056 5.32239 -118.215 35.9883 24.7349 -9.23875e-008 5.03751e-008 3.75197e-006 -12.217 33.1176 3.55738 1.46601e-005 3.78258e-006 3.0015 -8.02895 -4.95136 -0.697667 134.139 73.2192 48.8334 180 7.0155e-015 178.937 177.884 85.4001 178.652 -1.27286e-006 4.0938e-006 1.86269 -19.9663 66.325 18.1537 8.13649 25.2327 -3.48773 -135.695 73.9365 -45.7749 4.47153e-006 -3.51245e-005 -1.3878 32.577 -85.77 32.9479 -1.1153e-006 2.67091e-006 -2.12631 16.6823 61.8005 -15.2818 -8.13562 25.2346 3.48476 
55.3061 55.9471 13.9909 -1.54604 -10.3522 -0.606111 0.840054 1.57294 -0.18878 1.70432 7.13045 -0.494755 1.72014 8.77506 -0.525285 -5.15784 -3.43317 -3.22176 4.37806 3.51146 -3.62089 55.2851 -11.1182 -6.96193 128.466 35.1617 -24.4513 -8.08886e-007 -2.2409e-006 -9.31328e-006 18.7462 37.3946 -7.7607 5.21238e-006 -1.09415e-005 -3.01013 8.02892 -4.95095 0.697473 -63.9083 -8.38065 5.32233 -118.217 35.9846 24.7386 -9.23875e-008 5.03751e-008 3.75197e-006 -12.217 33.1254 3.55824 1.46601e-005 3.78258e-006 3.0015 -8.02895 -4.95136 -0.697667 134.129 73.2206 48.8548 180 7.0155e-015 178.936 177.797 85.3925 178.734 -1.27286e-006 4.0938e-006 1.86356 -19.9744 66.3149 18.1453 8.13649 25.2327 -3.48773 -135.697 73.948 -45.7638 4.47153e-006 -3.51244e-005 -1.38728 32.5464 -85.7648 32.9173 -1.1153e-006 2.67091e-006 -2.12637 16.6807 61.8025 -15.2836 -8.13562 25.2346 3.48476 
55.2917 55.9548 13.9471 -1.54859 -10.3471 -0.604154 0.840008 1.57299 -0.188779 1.70561 7.13017 -0.495494 1.72056 8.77479 -0.525923 -5.16012 -3.4332 -3.22299 4.38508 3.52186 -3.62237 55.2882 -11.1187 -6.96223 128.461 35.1596 -24.4504 -8.08886e-007 -2.2409e-006 -9.31328e-006 18.7453 37.4161 -7.76543 5.21238e-006 -1.09415e-005 -3.01013 8.02892 -4.95095 0.697473 -63.9036 -8.38083 5.32232 -118.22 35.9806 24.7424 -9.23875e-008 5.03751e-008 3.75197e-006 -12.2171 33.1336 3.55914 1.46601e-005 3.78258e-006 3.0015 -8.02895 -4.95136 -0.697667 134.119 73.2222 48.8756 180 7.0155e-015 178.935 177.714 85.3852 178.813 -1.27286e-006 4.0938e-006 1.86439 -19.9821 66.3053 18.1375 8.13649 25.2327 -3.48773 -135.699 73.9594 -45.7533 4.47153e-006 -3.51245e-005 -1.38676 32.5167 -85.7597 32.8877 -1.1153e-006 2.67091e-006 -2.12643 16.6791 61.8045 -15.2854 -8.13562 25.2346 3.48476 
55.2967 55.9534 13.9578 -1.55107 -10.3419 -0.602347 0.839973 1.57304 -0.188779 1.70684 7.12995 -0.49622 1.72095 8.77458 -0.526552 -5.16232 -3.43308 -3.22422 4.39205 3.53203 -3.62384 55.2913 -11.1191 -6.9625 128.457 35.1574 -24.4499 -8.08886e-007 -2.2409e-006 -9.31328e-006 18.7447 37.4376 -7.77021 5.21238e-006 -1.09415e-005 -3.01013 8.02892 -4.95095 0.697473 -63.899 -8.38112 5.32238 -118.223 35.9766 24.7461 -9.23875e-008 5.03751e-008 3.75197e-006 -12.217 33.1425 3.56009 1.46601e-005 3.78258e-006 3.0015 -8.02895 -4.95136 -0.697667 134.11 73.2241 48.8955 180 7.01549e-015 178.934 177.636 85.3782 178.886 -1.27286e-006 4.0938e-006 1.86516 -19.9893 66.2965 18.1302 8.13649 25.2327 -3.48773 -135.7 73.9705 -45.7436 4.47153e-006 -3.51245e-005 -1.38624 32.4883 -85.7548 32.8592 -1.1153e-006 2.67091e-006 -2.12649 16.6775 61.8067 -15.2872 -8.13562 25.2346 3.48476 
55.3013 55.9486 13.975 -1.55345 -10.3368 -0.60073 0.839954 1.57309 -0.188779 1.70799 7.1298 -0.49693 1.72131 8.77443 -0.52717 -5.16439 -3.43279 -3.22545 4.39892 3.54192 -3.6253 55.2943 -11.1195 -6.96271 128.452 35.1551 -24.4497 -8.08886e-007 -2.2409e-006 -9.31328e-006 18.7442 37.4592 -7.77505 5.21238e-006 -1.09415e-005 -3.01013 8.02892 -4.95095 0.697473 -63.8944 -8.38155 5.32252 -118.225 35.9723 24.7498 -9.23875e-008 5.03751e-008 3.75197e-006 -12.2169 33.1522 3.5611 1.46601e-005 3.78258e-006 3.0015 -8.02895 -4.95136 -0.697667 134.1 73.2263 48.9144 180 7.01549e-015 178.933 177.566 85.3718 178.952 -1.27286e-006 4.0938e-006 1.86588 -19.996 66.2887 18.1237 8.13649 25.2327 -3.48773 -135.701 73.9813 -45.735 4.47153e-006 -3.51245e-005 -1.38571 32.4614 -85.7501 32.8323 -1.1153e-006 2.67091e-006 -2.12655 16.676 61.809 -15.2891 -8.13562 25.2346 3.48476 
55.3001 55.9491 13.9662 -1.55573 -10.3316 -0.599344 0.839954 1.57315 -0.18878 1.70904 7.12974 -0.497621 1.72162 8.77437 -0.527774 -5.16632 -3.43228 -3.22668 4.4057 3.55145 -3.62675 55.2972 -11.1198 -6.96286 128.447 35.1526 -24.4501 -8.08886e-007 -2.2409e-006 -9.31328e-006 18.744 37.4808 -7.77995 5.21238e-006 -1.09415e-005 -3.01013 8.02892 -4.95095 0.697473 -63.89 -8.38216 5.32276 -118.227 35.9678 24.7535 -9.23875e-008 5.03751e-008 3.75197e-006 -12.2167 33.1628 3.56219 1.46601e-005 3.78258e-006 3.0015 -8.02895 -4.95136 -0.697667 134.091 73.2289 48.9321 180 7.01549e-015 178.932 177.503 85.366 179.011 -1.27286e-006 4.0938e-006 1.86651 -20.0019 66.2821 18.1182 8.13649 25.2327 -3.48773 -135.7 73.9918 -45.7277 4.47153e-006 -3.51245e-005 -1.38519 32.4364 -85.7457 32.8073 -1.1153e-006 2.67091e-006 -2.12662 16.6746 61.8114 -15.291 -8.13562 25.2346 3.48476 
